<svg fill="#C4C5BA" xmlns="http://www.w3.org/2000/svg" version="1.1" viewBox="-5.0 -10.0 110.0 135.0">
  <path d="m84.668 50.199c0-0.19922 0-0.5-0.10156-0.70312 0-0.19922-0.19922-0.30078-0.30078-0.5-0.19922-0.40234-0.10156-0.90234-0.30078-1.3008-0.19922-0.60156-1.0039-0.60156-1.5039-1.0039-0.60156-0.40234 0.10156-0.90234 0.10156-1.4023 0-0.40234-0.40234-0.40234-0.60156-0.80078-0.10156-0.19922-0.19922-0.5-0.30078-0.70312-0.10156-0.19922 0-0.40234-0.19922-0.5-0.19922-0.19922-0.5-0.30078-0.30078-0.60156 0.10156-0.19922 0.40234-0.40234 0.60156-0.60156 0.10156-0.19922 0.19922-0.40234 0.19922-0.60156s-0.19922-0.5-0.10156-0.80078c0.10156-0.30078 0.40234-0.30078 0.40234-0.60156 0-0.5-0.30078-0.40234-0.5-0.70312-0.10156-0.10156-0.10156-0.30078 0-0.40234 0-0.19922 0.10156-0.10156 0.10156-0.19922 0.10156-0.19922 0-0.30078 0-0.5 0-0.10156 0-0.19922 0.10156-0.30078 0.10156-0.5-0.40234-0.5-0.80078-0.60156-0.10156-0.5-0.40234-0.80078-0.5-1.3008 0-0.19922-0.10156-0.5 0-0.70312 0.10156-0.19922 0.30078-0.30078 0.5-0.5 0.19922-0.19922 0.30078-0.40234 0.19922-0.60156v-0.10156c-0.10156-0.30078-0.10156-0.40234 0.10156-0.70312 0.30078-0.5-0.70312-0.80078-1.0039-1.1016-0.30078-0.30078-0.60156-0.5-0.80078-0.80078-0.10156-0.10156-0.10156-0.19922-0.19922-0.30078-0.10156-0.10156-0.30078-0.10156-0.40234-0.19922-0.19922-0.30078-0.5-0.5-0.70312-0.70312-0.10156-0.10156-0.19922-0.10156-0.30078-0.10156-0.10156 0-0.40234 0-0.5-0.19922-0.10156-0.19922 0.10156-0.5 0.10156-0.70313 0.10156-0.30078 0.10156-0.70312 0.10156-1.0039 0.19922-0.10156 0.40234-0.19922 0.5-0.30078 0.19922-0.10156 0.30078-0.19922 0.5-0.30078 0.40234-0.30078 0.70313-0.80078 0.80078-1.3008 0.10156-0.30078 0-0.5 0-0.80078s0-0.40234 0.19922-0.60156c0.10156-0.19922 0.30078-0.30078 0.19922-0.5 0-0.19922-0.19922-0.30078-0.19922-0.5-0.10156-0.40234-0.19922-0.80078-0.19922-1.2031 0-0.19922-0.10156-0.40234-0.10156-0.70312 0-0.19922-0.10156-0.40234-0.10156-0.5 0-0.40234-0.30078-0.5-0.30078-0.80078v-0.90234c0-0.10156-0.10156-0.19922-0.10156-0.40234 0-0.10156 0-0.30078-0.10156-0.5 0-0.19922-0.19922-0.30078-0.30078-0.40234 0-0.10156 0.10156-0.19922 0.10156-0.30078 0.19922-0.40234-0.40234-0.5-0.70312-0.5h-0.90234c-0.30078 0-0.40234 0.10156-0.60156-0.19922-0.10156-0.10156-0.40234-0.30078-0.40234-0.40234-0.10156-0.30078 0.60156-0.10156 0.80078-0.30078 0.30078-0.19922 0.10156-0.40234 0.60156-0.40234 0.30078 0 0.70313 0.30078 0.80078-0.10156 0.19922-0.5-0.10156-1.1016-0.40234-1.5039-0.10156-0.19922-0.30078-0.30078-0.5-0.40234s-0.30078-0.30078-0.40234-0.5c-0.30078-0.30078-0.60156-0.5-1.0039-0.70312-0.40234-0.19922-0.40234-0.60156-0.60156-0.90234-0.10156-0.10156-0.5-0.40234-0.60156-0.19922-0.10156 0.10156 0.10156 0.40234 0.19922 0.5-0.30078 0-0.5-0.10156-0.70312-0.19922-0.19922-0.10156-0.40234 0-0.60156 0-0.30078 0-0.70312-0.10156-0.90234 0.19922-0.10156 0.10156 0 0.60156-0.10156 0.60156-0.19922 0.10156-0.30078-0.60156-0.40234-0.70312-0.19922-0.19922-0.5-0.19922-0.60156-0.40234-0.19922-0.30078-0.10156-0.5 0.30078-0.5 0.10156 0 0.40234 0 0.5-0.10156 0-0.19922-0.10156-0.19922-0.19922-0.30078-0.10156 0-0.30078 0-0.30078-0.19922-0.10156-0.19922 0.19922-0.40234 0.30078-0.5 0.19922-0.19922 0.30078-0.40234 0.5-0.5 0.10156 0 0.40234-0.10156 0.5-0.10156 0.19922 0 0.19922 0.19922 0.40234 0.19922 0.10156 0 0.19922-0.10156 0.40234 0 0.30078 0.19922 0.10156 0.30078 0 0.40234 0 0.19922 0.19922 0.30078 0.40234 0.30078 0-0.19922 0-0.30078 0.10156-0.5s0.10156-0.30078 0-0.5l-0.40234-0.40234c-0.10156-0.10156-0.40234-0.10156-0.5-0.30078 0-0.40234-0.40234-0.80078-0.19922-1.1016 0.10156-0.19922 0.30078-0.19922 0.5-0.40234 0.10156-0.19922 0.10156-0.5 0-0.60156-0.40234-0.60156-1.4023 0.19922-1.9023-0.19922-0.10156-0.10156-0.30078-0.5-0.30078-0.60156 0-0.30078 0.40234-0.19922 0.5-0.5 0.19922-0.60156-1.7031-0.30078-1.7031 0.30078 0 0.19922-0.10156 0.19922 0.10156 0.30078 0.10156 0 0.10156-0.10156 0.19922-0.19922 0 0 0-0.10156 0.10156-0.10156 0.10156 0 0.10156 0 0.10156 0.10156 0 0.10156-0.10156 0.19922-0.10156 0.30078v0.30078 0.40234c0 0.10156-0.10156 0.10156-0.19922 0.19922-0.19922 0-0.60156 0-0.70312 0.19922 0.10156 0.10156 0.10156 0.30078 0.10156 0.40234 0.015625 0.11328 0.11719 0.011719 0.31641 0.011719 0.19922 0 0.10156 0.19922-0.10156 0.19922-0.30078 0-0.70312 0.10156-0.5 0.5 0.10156 0.20312 0.30078 0.30469 0.5 0.30469 0.19922 0 0.19922 0 0.19922 0.19922v0.40234c-0.19922 0.10156-0.60156 0.19922-0.80078 0.19922s-0.19922 0-0.30078-0.10156-0.19922-0.19922-0.19922-0.30078c-0.10156-0.19922-0.10156-0.30078-0.10156-0.39844 0-0.10156-0.10156-0.10156-0.19922-0.10156-0.10156 0-0.19922 0.19922-0.30078 0.30078-0.10156 0.10156-0.19922 0-0.40234 0-0.097656 0-0.097656 0-0.097656 0.10156-0.19922-0.10156 0-0.30078-0.10156-0.30078-0.10156-0.10156-0.30078-0.10156-0.40234-0.10156h-0.40234c-0.10156 0-0.30078-0.10156-0.40234-0.10156h-0.40234-0.60156c-0.30078-0.10156-0.70312-0.19922-0.90234-0.5-0.10156 0.19922-0.10156 0.40234-0.19922 0.60156 0 0.10156-0.10156 0.30078-0.19922 0.40234-0.10156 0.19922-0.30078 0.40234-0.40234 0.60156-0.19922 0.30078-0.40234 0.70312-0.70312 1.0039-0.10156 0.19922-0.30078 0.19922-0.5 0.30078-0.19922 0.10156-0.40234 0.10156-0.60156 0.40234-0.19922 0.19922-0.30078 0.5-0.40234 0.70312-0.40234 0.40234-0.90234 0.40234-1.4023 0.40234-0.30078 0-0.60156 0.10156-0.90234 0.10156s-0.60156-0.10156-0.90234 0c-0.30078 0-0.60156 0.30078-0.80078 0.5-0.10156 0.10156-0.19922 0.19922-0.19922 0.40234 0 0.19922-0.10156 0.30078-0.19922 0.5-0.10156 0.19922-0.10156 0.30078-0.30078 0.40234s-0.40234 0.10156-0.40234 0.30078c-0.10156 0.19922-0.10156 0.40234-0.10156 0.60156 0 0.10156 0.10156 0.40234-0.10156 0.5 0 0-0.19922 0.10156-0.19922 0-0.10156 0-0.10156-0.10156-0.10156-0.19922-0.10156-0.10156-0.10156-0.10156-0.19922-0.10156-0.10156 0-0.10156-0.19922-0.19922-0.19922-0.19922-0.10156-0.40234 0.19922-0.60156 0.19922-0.30078 0-0.19922-0.30078-0.19922-0.5-0.30078-0.30078-0.90234-0.60156-1.4023-0.5-0.40234 0.10156-0.70312 0.19922-1.0039 0.40234-0.10156 0.10156-0.30078 0.19922-0.40234 0.19922-0.19922 0-0.10156-0.19922-0.10156-0.40234-0.10156-0.10156-0.19922-0.10156-0.30078-0.10156s-0.19922 0-0.30078 0.10156c-0.10156 0-0.10156 0.10156-0.19922 0-0.30078-0.19922-0.10156-0.80078 0-1.1016 0.10156-0.19922 0.19922-0.10156 0.40234-0.10156 0.19922 0 0.40234-0.10156 0.60156-0.30078s0.40234-0.30078 0.60156-0.5c0.19922-0.19922 0.5-0.30078 0.60156-0.5 0.30078-0.40234 0.19922-0.90234 0.19922-1.3008 0-0.19922-0.10156-0.5-0.10156-0.70312 0-0.19922 0.19922-0.30078 0.19922-0.40234 0.10156 0 0.10156-0.10156 0.10156-0.19922 0-0.10156-0.19922 0-0.30078 0-0.10156 0-0.30078 0.10156-0.5 0.10156-0.19922 0-0.30078-0.10156-0.40234-0.10156-0.60156 0.10156-0.90234 0.70312-1.4023 0.90234-0.19922 0.10156-0.40234 0.19922-0.60156 0-0.19922-0.10156-0.30078-0.40234-0.5-0.5-0.30078-0.19922-0.70312-0.19922-1.1016-0.40234-0.30078-0.10156-0.5-0.5-0.80078-0.60156-0.19141-0.11328-0.28906-0.21094-0.49219-0.21094-0.19922 0-0.19922 0.10156-0.30078 0.19922-0.19922 0.10156-0.30078 0-0.5 0.10156-0.10156 0-0.19922 0.30078-0.30078 0.40234-0.19922-0.30078 0.10156-1.0039-0.19922-1.1016-0.5-0.30078-1.2031 0-1.7031 0.10156-0.10156 0-0.60156 0.19922-0.70312 0.10156-0.19922-0.10156 0.40234-0.30078 0.5-0.40234 0.30078-0.19922 0.80078-0.40234 0.90234-0.80078 0.10156-0.19922 0.10156-0.5 0.10156-0.80078v-0.60156c-0.19922-0.10156-0.40234-0.40234-0.60156-0.40234 0.10156-0.19922 0.40234-0.10156 0.40234-0.40234 0-0.10156-0.19922-0.30078-0.30078-0.40234-0.10156-0.30078-0.10156-0.70312-0.50391-0.90234-0.10156 0.19922-0.10156 0.5-0.30078 0.60156-0.29688 0-0.29688-0.30078-0.5-0.50391-0.19922-0.19922-0.5-0.19922-0.69922-0.30078-0.30078-0.10156-0.60156-0.40234-0.90234-0.40234 0-0.10156 0.10156-0.19922 0-0.40234-0.5-0.10156-0.90234 1.0039-1.5039 0.5-0.19922-0.10156-0.10156-0.19922-0.30078-0.10156-0.19922 0.19922-0.30078 0.40234-0.60156 0.40234-0.60156 0-0.40234-0.70312-0.90234-0.90234-0.30078 0.007812-0.60156 0.10547-1 0.007812-0.30078 0-0.5-0.40234-0.80078-0.40234s-0.60156 0.10156-1.0039 0.10156h-0.19922c-0.19922 0-0.19922 0.19922-0.40234 0.19922-0.10156 0-0.19922 0-0.30078-0.10156-0.10156-0.10156-0.30078-0.40234-0.60156-0.30078 0 0 0 0.19922-0.10156 0.19922-0.10156 0.10156-0.10156 0.10156-0.19922 0.19922 0 0.10156 0.10156 0.19922 0.10156 0.30078v0.19922c0.10156 0.19922 0.19922 0.40234 0.30078 0.5 0.19922 0.19922 0.30078 0.30078 0.30078 0.60156 0 0.19922 0 0.40234 0.10156 0.5 0.10156 0.10156 0.19922 0.19922 0.19922 0.30078 0.10156 0.19922 0.10156 0.19922 0.19922 0.40234 0.10156 0.10156 0.30078 0.30078 0.40234 0.40234 0.10156 0.10156 0.10156 0.10156 0.10156 0.19922 0 0.10156-0.10156 0.19922 0 0.30078 0.10156 0 0.19922-0.10156 0.30078-0.10156 0.10156 0.30078 0.10156 0.70313 0.40234 0.90234-0.19922 0.10156-0.60156 0.10156-0.80078 0.40234-0.19922 0.19922 0 0.30078 0.19922 0.5 0.30078 0.19922 0.40234 0.30078 0.60156-0.10156 0.10156-0.19922 0.30078-0.60156 0.5-0.30078 0.19922 0.19922-0.10156 0.5-0.19922 0.60156-0.10156 0.10156-0.19922 0.10156-0.30078 0.19922-0.19922 0.10156-0.19922 0.30078-0.40234 0.30078-0.40234 0.19922-0.80078 0.10156-1.2031 0.19922-0.10156 0.30859-0.60156 0.41016-0.10156 0.70703 0 0.40234-0.5 0.10156-0.5 0.5 0 0.10156 0.10156 0.30078 0.19922 0.40234 0 0.19922 0.10156 0.30078 0.19922 0.40234 0.30078-0.19922 0.40234-0.19922 0.70312-0.10156h0.40234c0.10156 0 0.19922-0.10156 0.30078 0v0.10156c0.19922-0.10156 0.40234-0.10156 0.5-0.19922 0.10156-0.10156 0.30078-0.30078 0.40234-0.5 0.10156 0.19922-0.10156 0.5-0.19922 0.70312-0.10156 0.19922-0.30078 0.19922-0.5 0.30078-0.10156 0-0.19922 0-0.19922 0.10156 0 0.10156-0.10156 0.19922-0.10156 0.19922v0.19922c0 0.30078-0.19922 0.40234-0.10156 0.80078 0 0.10156 0.10156 0.30078 0.19922 0.40234 0.10156 0.10156 0.19922 0.10156 0.40234 0.10156 0.19922 0 0.19922 0 0.30078 0.19922 0.10156 0.10156 0.10156 0.19922 0.10156 0.40234 0 0.10156 0.10156 0.10156 0.19922 0.19922 0.10156 0.10156 0.10156 0.40234-0.10156 0.5-0.19922 0.10156-0.5 0-0.60156-0.10156-0.30078-0.10156-0.5-0.10156-0.5 0.30078 0 0.30078 0.30078 0.30078 0.5 0.30078 0.10156 0.10156 0 0.30078 0.10156 0.5 0 0.10156 0 0.19922 0.10156 0.30078 0 0.10156 0 0.19922 0.10156 0.30078 0.10156 0.10156 0.30078 0.10156 0.40234 0.10156 0.30078 0 0.60156 0.10156 1.0039 0.10156 0.60156 0 0.90234 0 1.2031 0.10156 0.5 0.10156 0.60156 0.30078 0.70312 0.30078 0 0 0.30078 0.30078 0.40234 0.60156 0.10156 0.30078 0.10156 0.40234 0.10156 0.40234 0 0.10156 0 0.19922 0.10156 0.30078 0.10156 0.10156 0.19922 0.19922 0.19922 0.19922 0.30078 0.10156 0.5 0.5 0.60156 0.70312 0.19922 0.30078 0 0.40234 0.19922 0.80078 0.10156 0.19922 0.40234 0.40234 0.5 0.5 0.19922 0.10156 0.30078 0.19922 0.40234 0.19922 0.19922 0.10156 0.40234 0.19922 0.70312 0.19922 0.19922 0.10156 0 0 0.30078 0.10156-0.70313 0-1.0039-0.10156-1.6016-0.40234-0.19922-0.10156-0.30078-0.19922-0.40234-0.40234-0.10156-0.19922-0.19922-0.5-0.30078-0.70312-0.10156-0.19922-0.30078-0.5-0.40234-0.70312-0.10156-0.10156-0.30078-0.30078-0.40234-0.40234-0.30078-0.40234-0.40234-0.80078-0.70312-1.1016-0.19922-0.19922-0.40234-0.30078-0.70313-0.40234h-0.80078c-0.30078 0.10156-0.5 0.10156-0.80078 0.19922-0.30078 0.10156-0.5 0.19922-0.80078 0.19922s-0.60156 0-0.80078-0.10156c-0.30078-0.10156-0.40234-0.5-0.70313-0.60156-0.19922-0.10156-0.40234-0.10156-0.60156 0.10156-0.10156 0.10156-0.10156 0.19922-0.19922 0.30078-0.10156 0.19922-0.19922 0.30078-0.30078 0.5-0.19922 0.30078-0.10156 0.70312-0.30078 1.1016-0.10156 0.19922-0.19922 0.40234-0.19922 0.5-0.10156 0.10156-0.19922 0.19922-0.10156 0.30078 0 0.10156 0.10156 0.10156 0.10156 0.19922 0 0.10156 0 0.30078 0.10156 0.40234 0.10156 0.19922 0.19922 0.30078 0.30078 0.5 0 0.10156 0.10156 0.19922 0.10156 0.30078 0.10156 0.19922 0 0.30078 0 0.5-0.10156-0.10156-0.19922-0.10156-0.30078-0.19922-0.10156 0-0.19922 0-0.30078-0.10156-0.30078-0.10156-0.5-0.30078-0.60156-0.5-0.19922-0.30078-0.30078-0.19922-0.60156-0.30078-0.19922 0-0.30078-0.19922-0.5-0.30078-0.10156 0.19922 0 0.30078 0.10156 0.5 0 0.19922 0 0.40234-0.10156 0.5 0 0.19922-0.10156 0.40234 0.19922 0.60156 0.10156 0 0.19922 0 0.30078 0.10156 0.10156 0.10156 0.10156 0.30078 0 0.5 0 0.19922-0.10156 0.70312-0.30078 0.80078-0.10156 0.10156-0.40234 0.10156-0.5 0-0.10156-0.10156-0.10156-0.30078-0.19922-0.5-0.10156-0.19922-0.40234-0.19922-0.5-0.19922-0.19922-0.10156-0.5-0.60156-0.10156-0.60156 0.10156 0 0.30078 0 0.40234-0.10156 0.10156-0.10156 0.10156-0.30078 0.10156-0.40234-0.10156-0.40234-0.19922-1.1016-0.60156-1.3008-0.19922-0.10156-0.40234-0.30078-0.5-0.5 0-0.19922 0-0.30078-0.30078-0.40234-0.80078 0.40234-1.8047 0-2.6055 0.30078-0.80078 0.30078-1.4023 0-2.2031 0.10156-0.5 0-1.2031 0.30078-1.5039 0.5-0.19922 0.19922-0.60156 0.60156-0.60156 0.90234 0 0.19922 0.40234 0.5 0.40234 0.60156-0.10156 0.19922-0.60156-0.10156-0.80078 0 0 0.19922 0.10156 0.30078 0.10156 0.40234-0.10156 0.19922-0.30078 0.30078-0.30078 0.5-0.10156 0.30078-0.10156 1.1016 0 1.4023 0.10156 0.19922 0.70312 0.19922 0.90234 0.30078 0.40234 0.10156 1.1016 0 1.4023 0.19922-0.10156 0-0.40234 0-0.40234 0.19922-0.10156 0.19922 0 0.30078-0.10156 0.5-0.10156 0.10156-0.19922 0.10156-0.19922 0.30078v0.5 0.19922c0 0.10156 0 0.10156 0.10156 0.10156 0.10156 0.10156-0.10156 0.19922-0.10156 0.30078-0.10156 0.10156-0.19922 0.19922-0.19922 0.30078 0 0.10156 0.10156 0.19922 0.10156 0.40234v0.70312c0 0.19922 0 0.5 0.10156 0.60156 0 0.40234-0.10156 0.5-0.30078 0.90234-0.19922 0.30078-0.40234 0.70312-0.60156 1.1016-0.40234 0.70312-0.30078 1.3008-0.30078 2.0039 0 0.19922 0.10156 0.80078-0.10156 0.90234-0.10156 0.10156-0.40234 0-0.5 0-0.40234 0-0.70312 0-1.1016-0.10156-0.30078 0-0.90234-0.19922-1.1016 0.19922-0.10156 0.30078 0.30078 0.60156 0.5 0.80078-0.10156 0-0.19922 0-0.30078 0.10156-0.10156 0-0.10156 0.10156-0.19922 0.10156v0.40234c0 0.10156 0.10156 0.30078 0.19922 0.40234 0.19922 0.19922 0.30078 0.30078 0.60156 0.40234h0.30078c0.19922 0 0.30078 0.30078 0.5 0.19922 0.10156 0 0.19922-0.10156 0.30078-0.19922 0.40234-0.30078 0.40234 0 0.60156 0.30078 0.19922 0.30078 0.40234 0.5 0.30078 0.80078 0 0.30078-0.30078 0.5-0.30078 0.80078s0.40234 0.60156 0.30078 0.80078c-0.10156 0.10156-0.19922 0.10156-0.30078 0.10156-0.19922 0.10156-0.30078 0.30078-0.40234 0.40234-0.10156 0.19922-0.19922 0.19922-0.40234 0.30078-0.19922 0.10156-0.30078 0.40234-0.40234 0.60156-0.19922 0.19922-0.5 0-0.70312 0.10156-0.19922 0.10156-0.10156 0.30078-0.19922 0.40234-0.10156 0.10156-0.30078 0.10156-0.30078 0.30078 0 0.19922 0.19922 0.30078 0.40234 0.40234 0.30078 0.10156 0.90234 0.30078 0.60156 0.70312-0.10156 0.19922-0.30078 0.40234-0.40234 0.60156-0.19922 0.19922-0.19922 0.30078-0.40234 0.19922-0.40234-0.10156-0.60156 0-1.0039 0.10156-0.19922 0.10156-0.60156 0.19922-0.80078 0.40234-0.10156 0-0.60156-0.30078-0.80078-0.19922-0.10156 0.10156 0 0.19922 0 0.19922 0.10156 0.10156 0.10156 0.10156 0.10156 0.30078-0.10156 0-0.19922-0.10156-0.30078-0.19922-0.10156-0.10156-0.10156-0.10156-0.19922-0.10156h-0.40234c0-0.40234-0.40234-0.10156-0.70312-0.30078-0.10156-0.10156-0.19922-0.30078-0.30078-0.40234-0.10156 0-0.19922 0.10156-0.30078 0.19922 0.10156 0.10156 0.5 0.30078 0.30078 0.5-0.10156 0.10156-0.30078 0-0.40234 0s-0.19922-0.10156-0.30078-0.10156c-0.10156 0-0.10156 0-0.19922 0.10156-0.10156 0.19922-0.19922 0.19922-0.40234 0.19922-0.10156 0-0.30078 0.10156-0.30078 0.19922 0 0.10156 0.10156 0.19922 0.10156 0.30078l0.30078 0.30078c-0.19922 0-0.40234 0.19922-0.5 0.30078 0.60156-0.10156 0.60156 0.40234 0.60156 0.80078 0.19922 0.10156 0.60156 0.19922 0.60156 0.40234 0 0.19922-0.19922 0.30078-0.10156 0.5 0.10156 0.19922 0.40234 0.5 0.60156 0.70312l0.30078 0.30078c0.10156 0.10156 0.10156 0.30078 0.10156 0.40234v0.80078c0 0.19922 0.10156 0.30078 0.10156 0.5s-0.10156 0.5-0.30078 0.60156c-0.10156 0.10156-0.30078 0.10156-0.40234 0.19922-0.19922 0.19922-0.30078 0.60156-0.5 0.90234-0.10156 0.19922-0.19922 0.80078 0 1.0039 0.10156 0 0.30078-0.10156 0.40234-0.10156 0 0.19922 0.10156 0.19922 0 0.40234-0.30078 0.10156-0.60156 0.30078-0.90234 0.60156-0.10156 0.10156-0.19922 0.10156-0.30078 0.30078-0.10156 0.10156-0.10156 0.19922-0.19922 0.30078-0.10156 0.10156-0.30078 0.30078-0.5 0.30078-0.10156 0.19922-0.10156 0.30078 0 0.5h0.30078c0.19922 0 0.5 0 0.5 0.19922v0.40234c0.19922 0.10156 0.70312 0 0.60156 0.30078 0 0.10156-0.10156 0.19922-0.10156 0.30078 0 0.19922 0.10156 0.60156-0.19922 0.5-0.19922 0-0.19922 0-0.19922 0.19922-0.10156 0.19922-0.10156 0.30078-0.30078 0.40234 0.10156 0.19922 0.40234 0.19922 0.40234 0.5 0 0.19922 0 0.30078 0.10156 0.40234 0.19922 0.10156 0.40234 0 0.5 0.10156 0.10156 0.10156 0.10156 0.30078 0.19922 0.40234 0.10156 0.10156 0.10156 0.19922 0.19922 0.30078 0.10156 0.10156 0.30078 0.10156 0.5 0.19922 0.40234 0.19922 0 0.80078-0.19922 1.0039-0.10156 0.10156-0.19922 0.19922-0.19922 0.30078 0 0.10156 0.10156 0.30078 0.10156 0.30078 0.10156 0.10156 0.19922 0 0.30078 0 0.19922 0 0.40234 0 0.5 0.10156 0.30078 0.10156 0.19922 0.19922 0.30078 0.5 0.30078 0 0.10156 0.70313 0.10156 0.80078 0 0.19922-0.10156 0.30078 0.10156 0.40234 0.19922 0.19922 0.40234 0.19922 0.10156 0.40234-0.10156 0.10156-0.19922 0.10156-0.30078 0.10156s-0.19922-0.19922-0.40234-0.10156c-0.19922 0.10156 0 0.60156-0.30078 0.60156-0.30078 0.10156-0.60156 0.10156-0.70312 0.40234-0.10156 0.19922 0.10156 0.40234 0 0.60156s-0.30078 0.10156-0.40234 0.40234c0 0.19922-0.10156 0.40234-0.10156 0.5 0 0.19922-0.10156 0.40234 0 0.60156 0 0.19922 0.19922 0.40234 0.19922 0.5 0.10156 0.19922 0.10156 0.30078 0.19922 0.5 0 0.10156 0 0.10156 0.10156 0.19922 0.10156 0.10156 0.19922 0 0.19922 0.19922 0 0.10156 0 0.30078 0.10156 0.40234 0.10156 0.10156 0.19922 0.10156 0.30078 0.19922l0.10156 0.10156c0.19922 0.10156 0.19922 0.40234 0.40234 0.5 0.10156 0 0.19922 0 0.30078 0.10156 0.10156 0 0.10156 0.10156 0.19922 0.19922 0.19922 0.10156 0.5 0 0.70313 0.10156 0.30078 0.10156 0.19922 0.30078-0.10156 0.40234 0.19922 0.30078 0.19922 0.40234 0.19922 0.80078 0 0.19922-0.19922 0.40234-0.19922 0.60156 0 0.10156 0 0.30078-0.10156 0.40234h-0.19922l-0.10156 0.10156c-0.10156 0.19922-0.19922 0.30078-0.30078 0.5-0.10156 0.10156-0.10156 0.10156-0.10156 0.30078 0 0.10156 0 0.19922-0.10156 0.30078 0 0.10156 0 0.30078 0.10156 0.5 0 0.10156 0 0.30078 0.10156 0.40234h0.60156c0.10156 0.19922 0.40234 0.30078 0.5 0.5 0 0.10156 0 0.19922 0.10156 0.19922 0.10156 0.10156 0.19922 0.10156 0.19922 0.19922 0 0.19922-0.10156 0.30078 0 0.5 0.10156 0.19922 0.40234 0.40234 0.60156 0.60156 0.10156 0.10156 0.19922 0.10156 0.19922 0.19922v0.19922c0.10156 0.10156 0.10156 0.10156 0.10156 0.30078s0 0.19922 0.19922 0.30078c0.10156 0 0.19922 0 0.19922 0.10156s-0.10156 0.19922-0.10156 0.40234c0 0.10156 0.5 0.19922 0.60156 0.19922 0.30078 0.10156 0.60156 0 0.40234-0.30078 0-0.10156-0.10156-0.19922 0-0.30078 0.10156-0.10156 0.19922 0 0.30078 0 0.19922 0 0.30078-0.10156 0.40234-0.10156 0.10156 0 0.19922 0.10156 0.30078 0.19922 0.19922 0.19922 0.40234 0.19922 0.5 0.40234 0.10156 0.19922 0.10156 0.40234 0.19922 0.60156 0.10156-0.10156 0.19922-0.10156 0.19922-0.19922 0-0.10156 0-0.19922 0.10156-0.19922 0.10156 0.10156 0.19922 0.19922 0.40234 0.30078 0.10156 0 0.30078 0.10156 0.40234 0 0.10156 0 0.10156-0.10156 0.19922-0.10156 0.19922 0 0.30078 0.10156 0.5 0.10156s0.19922-0.10156 0.19922-0.30078c0.19922 0 0.30078 0.10156 0.40234 0 0-0.10156 0-0.19922 0.10156-0.30078h0.5c0.10156 0 0.30078 0.10156 0.40234 0.10156 0.19922 0.10156 0.10156 0.19922 0.10156 0.40234 0 0.19922 0.30078 0.40234 0.5 0.5 0.10156 0.10156 0.30078 0.10156 0.40234 0.19922 0 0 0 0.10156 0.10156 0.19922 0.10156 0.10156 0.19922 0.10156 0.40234 0.10156h0.19922 0.30078 0.19922c0.19922-0.10156 0.19922-0.19922 0.40234-0.10156 0.19922 0.10156 0.30078 0.19922 0.40234 0.30078 0-0.10156 0.10156-0.10156 0.19922-0.10156 0 0 0.10156 0.10156 0.19922 0.10156l0.19922-0.19922c0.10156 0.10156 0.19922 0.30078 0.30078 0.40234 0.10156 0.10156 0.19922 0.19922 0.40234 0.19922 0.30078 0.10156 0.5 0.30078 0.80078 0.30078 0.10156 0 0.90234 0.10156 0.90234 0.19922 0 0.10156-0.5 0.30078-0.5 0.30078-0.10156 0.60156-0.60156 1.6016-1.1016 2.0039-0.30078 0.19922-0.40234 0.30078-0.60156 0.60156-0.19922 0.5-0.40234 0.70312-0.80078 1.0039-0.5 0.40234-0.19922 1.0039-0.5 1.6016-0.19922 0.30078-0.30078 0.60156-0.30078 1.0039 0 0.30078 0.10156 0.5 0 0.80078-0.10156 0.40234-0.5 0.5-0.70313 0.90234-0.19922 0.40234-0.30078 0.90234-0.40234 1.3008 0 0.19922-0.19922 0.40234-0.30078 0.60156-0.19922 0.40234 0 0.60156 0.19922 1.0039 0.10156 0.19922 0.19922 0.40234 0.19922 0.70312 0 0.19922-0.19922 0.40234-0.30078 0.70313-0.10156 0.19922 0 0.40234 0 0.60156 0 0.30078 0 0.30078-0.19922 0.5-0.19922 0.30078 0.10156 0.5 0.10156 0.90234-0.30078 0.10156-0.40234 0.40234-0.30078 0.70312 0.19922 0.30078 0.60156 0.40234 0.5 0.90234 0.10156 0.10156 0.19922 0.19922 0.30078 0.10156 0.10156 0 0.10156-0.10156 0.19922-0.10156l0.10156-0.10156c0.10156 0 0.19922 0.10156 0.19922 0.19922 0 0.10156-0.19922 0.10156-0.19922 0.30078 0 0.10156 0.10156 0.19922 0.19922 0.19922 0.10156 0 0.19922 0 0.30078-0.10156 0.10156 0 0.19922-0.10156 0.30078-0.10156s0.10156-0.10156 0.19922-0.10156c0.10156-0.10156 0.10156-0.10156 0.10156-0.19922 0.19922-0.10156 0.40234-0.10156 0.60156 0 0.10156 0.10156 0.30078 0.5 0.5 0.40234 0.10156 0 0-0.10156 0.10156-0.10156h0.30078 0.70312c0-0.19922 0-0.19922 0.19922-0.30078 0.10156 0 0.19922 0 0.30078-0.10156 0.10156-0.10156 0.19922-0.19922 0.30078-0.30078 0.10156-0.10156 0.19922 0 0.30078 0h0.19922c0.10156 0 0.10156 0 0.19922 0.10156 0.10156 0.10156 0.19922 0.19922 0.30078 0.30078 0.19922 0.19922 0.70312 0.10156 0.90234 0.10156 0-0.40234 0.30078-0.80078 0.70312-0.70312 0.10156 0 0.19922 0.19922 0.40234 0.10156 0.10156-0.10156 0.19922-0.40234 0.19922-0.5-0.10156-0.19922-0.19922-0.19922-0.30078-0.10156-0.19922 0.10156-0.30078 0.19922-0.5 0.19922-0.30078 0-0.5-0.19922-0.70312-0.40234-0.10156-0.19922 0.10156-0.19922 0.19922-0.40234 0.10156-0.19922 0.10156-0.30078 0.30078-0.5 0.10156-0.10156 0.19922-0.10156 0.19922-0.10156 0.10156 0 0.19922 0 0.30078-0.10156 0.10156-0.10156 0.10156-0.30078 0.30078-0.30078s0.30078 0.30078 0.40234 0.40234c0.10156-0.10156 0.10156-0.19922 0.19922-0.19922 0.19922 0 0.19922 0.30078 0.30078 0.40234 0 0 0.10156 0 0.19922 0.10156v0.19922c-0.10156 0.10156-0.40234 0.19922-0.19922 0.40234 0.10156 0.10156 0.30078 0.10156 0.40234 0.10156 0.10156 0 0.19922 0.10156 0.30078 0.10156 0.10156 0 0.19922 0 0.19922-0.10156 0-0.19922-0.30078-0.10156-0.30078-0.30078 0-0.10156 0.10156-0.19922 0.19922-0.19922 0.10156 0 0.19922 0.19922 0.30078 0.30078 0.10156 0 0.19922 0 0.30078 0.10156 0 0.10156-0.10156 0.30078 0 0.40234 0.10156 0.30078 0.70312 0.19922 0.90234 0 0.30078-0.19922 0.60156-0.19922 1.0039-0.10156 0.30078 0 0.60156 0.10156 0.90234 0.30078 0.10156 0 0.10156 0.10156 0.10156 0.19922 0.10156 0.10156 0.19922 0.10156 0.30078 0.19922 0.10156 0.10156 0.19922 0.10156 0.30078 0.19922 0.19922 0.10156 0.30078 0.19922 0.5 0.40234 0.19922 0.19922 0.19922 0.40234 0.40234 0.60156 0.60156 0.40234 1.4023 0.30078 2.1055 0.30078 0.19922 0 0.30078 0 0.30078-0.19922 0-0.19922-0.10156-0.40234 0.10156-0.5 0.19922-0.10156 0.40234 0 0.5 0.19922 0.10156 0 0.10156 0.10156 0.19922 0.10156 0.10156 0 0.10156-0.10156 0.19922-0.10156 0.10156 0 0.10156 0 0.19922 0.10156h0.19922c0.19922 0 0.19922 0.30078 0.30078 0.40234 0.10156 0.10156 0.19922 0.10156 0.30078 0.10156s0.10156 0 0.19922 0.10156c0 0 0 0.10156 0.10156 0.10156 0.10156 0 0.10156 0 0.19922 0.10156 0.10156 0 0.10156 0.10156 0.10156 0.10156 0.10156 0.19922-0.10156 0.30078-0.10156 0.5s0 0.40234 0.19922 0.5c0.10156 0 0.40234 0 0.5-0.10156 0.10156-0.10156 0.10156-0.10156 0.19922-0.10156 0.10156 0 0.19922 0 0.30078 0.10156v0.5 0.40234c0 0.10156-0.30078 0.10156 0 0.30078 0.19922 0.10156 0.30078-0.10156 0.40234-0.10156 0.30078-0.10156 0.5-0.19922 0.70313-0.5 0.19922-0.30078 0.19922-0.60156 0.60156-0.60156v-0.40234c0-0.10156 0.19922-0.10156 0.19922-0.19922 0.10156-0.19922 0-0.5 0-0.70312h-0.19922c-0.10156-0.19922 0-0.30078 0-0.40234 0.10156-0.19922-0.10156-0.40234-0.10156-0.60156 0-0.10156 0.40234-0.19922 0.30078 0 0 0.10156-0.10156 0.10156 0 0.19922 0 0.10156 0.10156 0.19922 0.19922 0.19922 0.10156 0 0.40234 0.10156 0.5 0 0.10156 0 0.19922-0.19922 0.19922-0.30078h0.60156c0.10156 0 0.10156 0 0.19922 0.10156 0 0 0 0.10156 0.10156 0.10156 0.10156 0.10156 0.30078 0 0.40234 0.10156 0.10156 0 0.10156 0.19922 0.19922 0.30078 0.10156 0 0.19922-0.10156 0.30078-0.10156 0.10156 0 0.19922 0 0.30078-0.10156 0.10156 0 0.10156-0.10156 0.19922-0.10156 0.10156 0 0.19922 0.10156 0.19922 0.19922 0 0.10156-0.19922 0.19922-0.30078 0.30078 0 0.19922 0.10156 0.19922 0.30078 0.19922 0.10156 0 0.19922 0 0.19922 0.10156 0.10156 0.10156 0.19922 0.19922 0.19922 0.40234 0 0.10156 0.10156 0.10156 0.10156 0.19922 0 0.10156-0.10156 0.19922-0.10156 0.30078 0.30078 0 0.70312 0 1.0039 0.10156 0.19922-0.19922 0.80078-0.5 1.1016-0.5 0 0.19922-0.10156 0.30078-0.10156 0.40234 0.30078 0.10156 0.5-0.30078 0.80078-0.40234 0.40234-0.10156 0.60156-0.10156 0.5-0.5-0.11719-0.32031-0.11719-0.32031 0.28516-0.32031 0.19922 0 0.5 0 0.70312-0.10156 0.5-0.30078 0.10156-0.80078 0.70312-0.90234h0.90234c0.30078 0 0.5-0.10156 0.80078 0.10156v-0.19922c0.19922 0 0.5 0 0.70312-0.10156 0.19922 0 0.30078-0.19922 0.5-0.19922l0.10156 0.10156h0.30078 0.60156c0.19922 0 0.40234-0.10156 0.40234 0.10156 0.40234-0.10156 0-0.90234-0.10156-1.1016 0.30078 0 0.5-0.19922 0.60156-0.5 0 0.19922 0.10156 0.40234 0.10156 0.60156 0.5 0.19922 1.2031-0.19922 1.5039 0.10156 0.30078 0.30078 0.30078 0.60156 0.90234 0.5 0.40234-0.10156 0.70312-0.5 1.2031-0.5 0.40234 0 0.30078 0.10156 0.60156 0.40234 0 0.10156 0.10156 0.10156 0.10156 0.19922 0.10156 0.19922-0.10156 0.40234-0.10156 0.70313 0.10156 0 0.19922 0.10156 0.30078 0.10156 0.10156 0.10156 0.10156 0.19922 0.19922 0.19922 0.19922 0.19922 0.30078 0.40234 0.5 0.5 0.19922 0.10156 0.60156 0.10156 0.70312 0.30078 0.19922-0.10156 0.30078-0.30078 0.30078-0.60156 0-0.10156-0.10156-0.19922-0.10156-0.30078 0-0.10156 0.10156-0.19922 0-0.40234 0.10156-0.10156 0.19922-0.40234 0.30078-0.5 0.10156-0.19922 0.10156-0.40234 0-0.60156 0-0.10156-0.10156-0.30078-0.19922-0.40234-0.19922-0.19922-0.30078-0.10156-0.60156 0-0.19922 0-0.5 0-0.5-0.19922 0-0.10156 0.19922-0.19922 0.19922-0.30078 0.10156-0.40234 0.10156-0.70312 0.5-1.0039-0.10156-0.40234-0.10156-0.90234-0.5-1.2031-0.10156-0.10156-0.40234-0.10156-0.5-0.30078-0.10156-0.19922-0.10156-0.30078-0.10156-0.5-0.60156-0.19922-0.80078-0.70312-0.80078-1.3008 0.30078 0 0.70313-0.30078 0.80078-0.60156 0.19922-0.40234 0.30078-0.40234 0.80078-0.40234 0.19922-0.60156 1.0039-1.0039 1.5039-1.0039 0.40234 0 0.60156 0.10156 0.90234-0.19922 0.10156-0.10156 0.19922-0.19922 0.30078-0.30078 0.19922-0.10156 0.40234-0.19922 0.5-0.30078 0.40234-0.19922 0.5-0.60156 0.5-1.0039 0-0.5 0.19922-0.90234 0-1.4023 0.19922 0.10156 0.40234-0.19922 0.5-0.40234 0.19922 0.10156 0.30078 0.30078 0.60156 0.30078 0.19922 0.10156 0.30078 0 0.60156 0.19922 0.19922 0.19922 0.40234 0.40234 0.60156 0.5 0.10156-0.19922 0.10156-0.5 0.19922-0.60156 0.10156-0.10156 0.19922 0 0.30078-0.19922 0.19922-0.40234 0.10156-0.80078 0.10156-1.1016 0.10156 0 0.30078-0.10156 0.30078-0.19922-0.30078-0.19922-0.40234-0.10156-0.30078-0.5 0.10156-0.19922 0.10156-0.30078 0-0.5 0-0.10156-0.10156-0.10156-0.10156-0.19922v-0.30078c-0.10156-0.30078-0.19922-0.19922-0.40234-0.30078-0.19922-0.30078 0-0.40234-0.40234-0.5-0.30078 0-0.30078-0.10156-0.5-0.30078-0.19922-0.40234-0.60156-0.90234-1.1016-0.60156v0.19922c-0.19922-0.19922-0.5-0.19922-0.70312-0.40234-0.10156-0.19922-0.10156-0.40234-0.10156-0.60156 0-0.30078-0.40234-0.90234-0.80078-1.0039-0.40234-0.19922-0.70312 0.19922-0.90234-0.30078-0.10156-0.19922-0.10156-0.30078-0.30078-0.5-0.19922-0.19922-0.30078-0.19922-0.40234-0.40234-0.10156-0.19922-0.19922-0.5-0.5-0.60156-0.10156-0.40234 0-0.5-0.30078-0.70312-0.30078-0.19922-0.5-0.30078-0.80078-0.40234v0.10156c-0.30078 0-0.5-0.10156-0.70312-0.10156-0.19922-0.80078-1.1016-0.80078-1.2031-1.6016v-0.5c-0.10156-0.30078-0.19922-0.19922-0.30078-0.40234-0.19922-0.19922-0.10156-0.19922-0.19922-0.5 0-0.19922 0-0.40234-0.30078-0.40234-0.10156-0.19922 0-0.5-0.19922-0.70313-0.19922-0.19922-0.5-0.19922-0.70312-0.60156 0-0.10156-0.10156-0.30078-0.10156-0.40234 0-0.19922 0.10156-0.19922 0.30078-0.30078 0.19922-0.10156 0.19922-0.10156 0.19922-0.30078 0-0.10156-0.10156-0.30078 0.10156-0.30078 0.10156-0.40234 0.10156-0.40234 0.30078-0.70312 0.10156-0.10156 0.30078-0.30078 0.10156-0.40234-0.19922-0.19922-0.40234 0.10156-0.5-0.30078 0-0.19922 0-0.30078-0.10156-0.5 0 0-0.10156 0-0.19922 0.10156-0.10156-0.10156-0.30078-0.30078-0.5-0.40234-0.19922-0.10156-0.30078-0.30078-0.5-0.5-0.19922-0.10156-0.40234-0.10156-0.60156-0.10156 0.10156-0.30078 0.19922-0.30078-0.19922-0.60156-0.10156-0.10156-0.19922-0.10156-0.30078-0.30078 0-0.19922 0.10156-0.30078 0.10156-0.5s-0.10156-0.40234-0.19922-0.5c-0.10156-0.19922-0.60156-0.30078-0.60156-0.60156 0-0.19922 0.10156-0.19922 0.19922-0.30078 0.10156-0.19922 0-0.40234 0-0.60156h0.5c0 0.30078 0.10156 0.40234 0.30078 0.60156 0.10156 0.10156 0.40234 0.19922 0.19922 0.40234 0.10156 0.10156 0.10156 0.10156 0.19922 0.10156 0 0.19922-0.10156 0.60156 0.10156 0.70312 0.30078 0.10156 0.19922-0.60156 0.19922-0.80078 0.40234 0.10156 0.10156-0.60156 0.5-0.60156 0.10156-0.10156 0.10156-0.30078 0.10156-0.40234 0.30078 0.10156 0.60156-0.10156 0.70312-0.40234 0.10156-0.30078 0-0.30078 0.30078-0.40234 0.40234-0.19922 0.90234-0.30078 1.3008-0.10156 0.30078 0.19922 0.30078 0.30078 0.5-0.10156 0.10156-0.30078 0.30078-0.5 0.70312-0.5s0.5 0.70313 1.0039 0.40234c0.30078-0.19922 0.19922-0.5 0.40234-0.70312 0.19922-0.30078 0.70312-0.30078 0.80078 0.10156 0.10156-0.10156 0.10156-0.19922 0.19922-0.40234 0.10156 0 0.19922 0 0.30078 0.10156 0.19922-0.5 0.30078-0.80078 0.70312-1.2031 0 0.10156 0.10156 0.10156 0.10156 0.19922 0.10156 0 0.19922-0.10156 0.30078-0.10156 0-0.19922 0.10156-0.19922 0.19922-0.30078 0.19922-0.19922 0.19922-0.10156 0.19922-0.40234 0.19922 0.19922 0.30078 0.5 0.60156 0.60156 0.19922 0 0.5-0.10156 0.5-0.30078 0-0.10156 0-0.30078 0.10156-0.40234 0-0.19922 0.10156-0.30078 0.10156-0.5 0.40234-0.10156 0.5-0.10156 0.80078-0.40234 0.40234 0.19922 0.30078 0.19922 0.60156 0 0.30078-0.19922 0.60156 0 1.0039 0 0.5 0 0.30078-0.40234 0.40234-0.60156 0.10156-0.30078 0.19922-0.10156 0.40234-0.19922 0.19922-0.10156 0.19922-0.30078 0.30078-0.30078 0.19922 0 0.30078 0.19922 0.5 0.10156 0.10156-0.10156 0.30078-0.30078 0.40234-0.30078 0.19922-0.10156 0.30078-0.10156 0.40234-0.10156s0.19922 0 0.30078-0.10156c0.10156-0.10156 0-0.10156 0.10156-0.19922 0.19922-0.30078 0.19922-0.19922 0.5-0.30078 0.10156 0.40234 0.60156 0.19922 0.70312 0 0.30078-0.5-0.30078-0.5-0.5-0.70312 0.10156-0.10156 0.10156-0.19922 0.19922-0.19922-0.19922-0.19922-0.5 0-0.60156-0.19922-0.10156-0.10156 0-0.40234 0.10156-0.5 0.10156-0.30078 0.19922-0.19922 0.40234-0.19922 0.19922 0.10156 0.30078 0.19922 0.40234 0.19922 0.19922 0.10156 0.30078 0 0.40234 0 0.10156 0 0.10156-0.10156 0.19922-0.10156 0.10156 0 0.19922 0.19922 0.40234 0.19922 0.30078 0.10156 0.40234-0.10156 0.40234 0.30078 0 0.30078-0.10156 0.5-0.10156 0.80078 0.19922 0.10156 0.40234 0.10156 0.60156 0 0.10156 0.19922-0.10156 0.5 0 0.60156s0.40234 0.10156 0.5 0.19922c0.10156 0.10156 0.10156 0.30078 0.30078 0.40234 0.30078 0.19922 0.5-0.10156 0.60156-0.30078v-0.40234c0.10156-0.19922 0.10156-0.19922 0.30078-0.30078 0.30078-0.19922 0.19922-0.40234 0.30078-0.60156 0-0.10156 0.10156-0.19922 0.19922-0.30078 0.10156-0.19922 0.10156-0.30078 0.19922-0.5 0.10156-0.19922 0.30078-0.40234 0.40234-0.60156 0.10156-0.30078 0-0.5 0-0.80078 0.27734-0.082032 0.47656-0.48047 0.67578-0.98438z"/>
</svg>
